<?xml version="1.0" encoding="UTF-8"?>
<svg xmlns="http://www.w3.org/2000/svg" xmlns:xlink="http://www.w3.org/1999/xlink" viewBox="0 0 500 500">
  <defs>
    <style>
      .cls-1 {
        fill: #603012;
      }

      .cls-2, .cls-3 {
        fill: #9c5300;
      }

      .cls-4, .cls-5, .cls-6, .cls-7 {
        fill: #fff;
      }

      .cls-8 {
        fill: #ffe191;
      }

      .cls-8, .cls-9, .cls-10, .cls-11 {
        fill-rule: evenodd;
      }

      .cls-9 {
        fill: #5fbb5b;
      }

      .cls-12 {
        isolation: isolate;
      }

      .cls-13 {
        fill: #854f2a;
      }

      .cls-5 {
        opacity: .1;
      }

      .cls-14 {
        fill: none;
        stroke: #669568;
        stroke-width: 4.27px;
      }

      .cls-14, .cls-15 {
        stroke-miterlimit: 10;
      }

      .cls-16, .cls-7 {
        opacity: .05;
      }

      .cls-3, .cls-6 {
        opacity: .2;
      }

      .cls-3, .cls-17 {
        mix-blend-mode: multiply;
      }

      .cls-18 {
        filter: url(#drop-shadow-1);
      }

      .cls-19, .cls-20 {
        fill: #683c1d;
      }

      .cls-10 {
        fill: #f6c421;
      }

      .cls-21, .cls-15 {
        fill: #337235;
      }

      .cls-11 {
        fill: #aad59a;
      }

      .cls-22 {
        letter-spacing: -.01em;
      }

      .cls-23 {
        fill: #dbbf9a;
      }

      .cls-24 {
        fill: #c57f3f;
        font-family: LEMONMILK-Bold, 'LEMON MILK';
        font-size: 53.85px;
        font-weight: 700;
      }

      .cls-15 {
        font-family: PrincessSofia, 'Princess Sofia';
        font-size: 40.41px;
        stroke: #337235;
      }

      .cls-25 {
        fill: #fffae3;
      }

      .cls-17, .cls-20 {
        opacity: .5;
      }

      .cls-17, .cls-26 {
        fill: #edddc8;
      }

      .cls-27 {
        fill: #f5e5ce;
      }

      .cls-28 {
        fill: #fffced;
      }

      .cls-29 {
        fill: #bd6b00;
      }
    </style>
    <filter id="drop-shadow-1" filterUnits="userSpaceOnUse">
      <feOffset dx="0" dy="3"/>
      <feGaussianBlur result="blur" stdDeviation="5"/>
      <feFlood flood-color="#000" flood-opacity=".45"/>
      <feComposite in2="blur" operator="in"/>
      <feComposite in="SourceGraphic"/>
    </filter>
  </defs>
  <g class="cls-12">
    <g id="OBJECTS">
      <g>
        <text class="cls-15" transform="translate(142.25 325.23)"><tspan x="0" y="0">Tafseer Circle</tspan></text>
        <text class="cls-24" transform="translate(192.75 385.02)"><tspan class="cls-22" x="0" y="0">L</tspan><tspan x="31.6" y="0">GU</tspan></text>
        <g>
          <path class="cls-10" d="m.75,230.83v-60.42c0-25.56,20.92-46.48,46.48-46.48h38.35c-25.56,0-46.48,20.92-46.48,46.48v60.42H.75Z"/>
          <path class="cls-8" d="m58.27,230.83v-60.42c0-25.56,20.92-46.48,46.48-46.48h38.35c-25.56,0-46.48,20.92-46.48,46.48v60.42h-38.35Z"/>
          <path class="cls-10" d="m499.25,269.17v60.42c0,25.56-20.92,46.48-46.48,46.48h-38.35c25.57,0,46.48-20.92,46.48-46.48v-60.42s38.35,0,38.35,0Z"/>
          <path class="cls-8" d="m441.73,269.17v60.42c0,25.56-20.91,46.48-46.48,46.48h-38.34c25.56,0,46.48-20.92,46.48-46.48v-60.42h38.34Z"/>
          <path class="cls-9" d="m87.31,60.2l42.72-42.72c18.08-18.08,47.66-18.08,65.73,0l27.12,27.11c-18.08-18.08-47.66-18.08-65.73,0l-42.72,42.72-27.11-27.11Z"/>
          <path class="cls-11" d="m127.99,100.87l42.72-42.72c18.08-18.08,47.66-18.08,65.73,0l27.11,27.11c-18.08-18.08-47.66-18.08-65.73,0l-42.72,42.72-27.11-27.11Z"/>
          <path class="cls-9" d="m412.69,439.8l-42.72,42.72c-18.08,18.08-47.66,18.08-65.74,0l-27.11-27.12c18.08,18.08,47.66,18.08,65.73,0l42.72-42.72,27.12,27.11Z"/>
          <path class="cls-11" d="m372.01,399.13l-42.72,42.72c-18.08,18.08-47.66,18.08-65.73,0l-27.11-27.11c18.08,18.08,47.66,18.08,65.73,0l42.72-42.72,27.11,27.11Z"/>
          <path class="cls-10" d="m269.17.75h60.42c25.57,0,46.48,20.92,46.48,46.48v38.35c0-25.56-20.92-46.48-46.48-46.48h-60.42V.75Z"/>
          <path class="cls-8" d="m269.17,58.27h60.42c25.56,0,46.48,20.92,46.48,46.48v38.35c0-25.57-20.92-46.48-46.48-46.48h-60.42v-38.35Z"/>
          <path class="cls-10" d="m230.83,499.25h-60.42c-25.56,0-46.48-20.92-46.48-46.48v-38.35c0,25.57,20.92,46.48,46.48,46.48h60.42v38.35Z"/>
          <path class="cls-8" d="m230.83,441.73h-60.42c-25.56,0-46.48-20.92-46.48-46.48v-38.35c0,25.56,20.92,46.48,46.48,46.48h60.42v38.35Z"/>
          <path class="cls-9" d="m439.8,87.31l42.72,42.72c18.08,18.08,18.08,47.66,0,65.73l-27.12,27.12c18.08-18.08,18.08-47.66,0-65.73l-42.72-42.72,27.11-27.11Z"/>
          <path class="cls-11" d="m399.13,127.99l42.72,42.72c18.08,18.08,18.08,47.66,0,65.73l-27.11,27.11c18.08-18.08,18.08-47.66,0-65.73l-42.73-42.72,27.12-27.11Z"/>
          <path class="cls-9" d="m60.2,412.69l-42.72-42.72c-18.08-18.08-18.08-47.66,0-65.73l27.12-27.11c-18.08,18.08-18.08,47.66,0,65.73l42.72,42.72-27.12,27.11Z"/>
          <path class="cls-11" d="m100.87,372.01l-42.72-42.72c-18.08-18.08-18.08-47.66,0-65.73l27.11-27.11c-18.08,18.08-18.08,47.66,0,65.73l42.72,42.72-27.12,27.12Z"/>
        </g>
        <g class="cls-18">
          <g>
            <g>
              <g>
                <g>
                  <path class="cls-2" d="m261.92,180.25l132.08,67.66,4.07,12.89-58.21-29.26,1.44,8.24c-14.89-5.82-19.63.31-24.81,4.11,6.98,9.99,14.44,22.08,31.14,31.98l1.44,8.24,66.58,32.39,4.25,13.47-160.97-78.28,2.97-71.43Z"/>
                  <polygon class="cls-2" points="398.07 260.8 401.54 253.86 343.34 224.59 344.78 232.83 341.31 239.78 339.86 231.54 353.24 233.04 398.07 260.8"/>
                  <polygon class="cls-2" points="419.91 329.96 423.39 323.01 262.42 244.74 265.39 173.31 261.92 180.25 258.94 251.68 419.91 329.96"/>
                </g>
                <path class="cls-29" d="m265.39,173.31l132.08,67.66,4.07,12.89-58.21-29.26,1.44,8.24c-14.89-5.82-19.63.31-24.81,4.11,6.98,9.99,14.44,22.08,31.14,31.98l1.44,8.24,66.58,32.39,4.25,13.47-160.97-78.28,2.97-71.43Z"/>
                <g>
                  <path class="cls-3" d="m389.65,241.78c1.9-.63-4.16,0-2.87-2.55.23-.46,1.32-.66.79-1.19-.87-.87-2.44.67-1.83,2.41.33.95,1.16.88-.59.61-3.5-.54-2.77-.33-6.17-2.21,1.8-6.39,1.37,1.67,2.94-.94,1.8-2.99-2.95-4.06-4.69-2.23-1.08-.76-5.07-9.14-10.01-6.84.36-1.21-.21-1.1-.21-.86-.02,3.38-7.66.42-11.17-2.49-2.31-1.92-3.52-4.39-5.29-6.71-.26-.35-.84-.16-.73.31,1.54,6.54,11.63,11.81,15.92,10.96-2.12,2.92,1.07,7.01,3.95,5.77,1.67-.72,1.84-3.25-.15-3.51-.36-.05-.59.44-.41.72.72,1.22-.04,1.34-2.3.36-1.05-2.94,1.54-6.99,9.03,1.68-2.75-.63-4.56,1.63-3.34,2.82,1.32,1.28,3,.06,1.99-.28-2.14-.72-1.21-2.13,2.3-1.3-.18.42-.25.92-.14,1.52,1.26,7.08,15.65,2.08,19.1,10.01.77,1.78,1.43-4.28-6.14-6.07Z"/>
                  <path class="cls-3" d="m417.8,313.3c-7.09-1.6-5.41-2.95-8.55-4.35-1.06-.47-2.34-.6-3.35-.17-.82-.94-2.36-.34-3.56-.3-.81.03-.28.06-.06-.58.12-.35-1.73.99-2.46-.4-.58-1.1,1.34-1.83,1.42-1.88,1.04-.66-.9-2.08-2.3-.1-.56.8-.49,1.99.22,2.7-4.87-1.04-8.51-5.78-3.58-5.56-.6-.03-.65,1.43.37,1.27,3.76-.59-1.74-7.04-3.89-1.82-9.44-15.58-19.33-3.06-25.01-12.6-.41-.68-1.63-.23-1.33.56,3.05,7.98,11.27,4.85,14.55,4.82,1.03,1.17,2.75,1.69,3.06,3.4.2,1.1-.7,2.65-1.97,1.92-.79-.46-.68-1.76.3-2.05.54-.16-1.59-.48-1.53,1.48.11,3.67,7.96.79,2.65-4.46,1.85.46,3.36,1.38,4.69,2.52.71,1.39-.17,2.28-.69,3.21-.57,1.01,1.95.68,1.73-2.24.33.33,3.43,3.56,3.33,4.25-.57,3.9,4.85,6.52,8.83,6.67,1.27.05,3.56-.87,4.88-.58-.46.28-.85.69-1.09,1.29-1.52,3.69,4.5,3.66,3.58.8-.14-.45-.9-.53-.99,0,.73-4.07,5.35,3.89,10.75,2.38.07-.02.08-.13,0-.15Z"/>
                  <path class="cls-3" d="m359.71,283.7c.79-1.48-.24-3.24-3.58-3.23-1.35,0,1.05,1.95-1.17,3.62-7.14-10.42-14.79.45-19.3-10.08,4.82,2.9,14.27-1.14,10.13-6.72-1.49-2.01-1.01,4.51-5.1.23-.27-.29-1.7-2.76-3.91-1.36-2.65,1.67-2.55,4.57-2.74,4.57-2.33-3.6-5.75-5.88-9.58-7.19,2.95-1,2.8-.57,4.06-1.39,2.18,2.03,7.32-.33,3.5-1.39,1.8-1.11.98-3.77-.96-2.24,1.21-5.21-5.95-7.77-6.94-2.96-.76-1.34-2.85.14-2.32.75.39.45.8.88,1.21,1.3-.85.17-1.63.74-2.03,1.75-.29.74,2.94,1.55,5.22,1.14-.56,1.94-3.13,1.68-3.26,2.58-3.19-.86-6.6-1.11-9.89-.92,3.23-1.28,5.23-5.38,2.93-10.21-5.17-10.85,7.44-10.4,5.2-5.04-.99,2.36-3.84,1.03-3.87-1.13-.01-.94-1.4-1.15-1.65-.22-.76,2.81,2.73,5.24,5.23,4.04,2.54-1.21,2.89-5.02.84-6.82-3.78-3.32-10.99,1.59-7.22,7.78-2.26-2.17-5.65-3.29-8.37-1.46-3.52,2.37-1.71,7.25,2.37,7.19,5.44-.08,4.26-6.12,1.2-5.22-.57.17-.71.99-.17,1.29.39,1.56-.07,2.21-1.36,1.97-.66-.53-1.33-1.06-1.99-1.58-.75-1.97,4.17-4.65,8.06-.43,4.04,4.38.59,12.19-9.82,9.82-6.25-1.42-6.4-7.26-12.23-13.02.08-.02,9.7,3.17,15.84-6.21.75-1.14-3.28-2.8-11.21,1.92,10.25-12.28.77-13.22-4.49.61-.36-4.09-1.67-8.05-6.24-9.12-2.17-.51,1.38,7.86,3.04,10.21-5.61-4.02-13.44-6.28-20.43-4.98,6.03-1.37,12.87-5.89,15.03-11.73,4.99-4.4,11.82-4.06,15.1-1.14-.62,4.02-1.6,4.83-2.93,2.41,1.71-.49-.33-2.75-1.59-1.65-5.18,4.53,10.6,7.72,6.28-.42-.48-.91-1.22-1.6-2.1-2.13.59-.09,1.11-.52,1.45-1.1,6.29,11.62,14.41,5.51,10.43.9-.32-.37,1.48-.77,1.12-2.68-.24-1.24-1.29-2.13-2.92-.92.49-.43,1.18-.97.67-1.39-2.11-1.73-4.13-1.18-5.81.18.42-3.76-.42-6.72-2.36-2.47-.49-1.36-1.45-3.59-2.89-3.68-3.23-.21-.1,5.67,1.4,9.29.25,3.11-3.34-.08-8.56.57-8.1,1-6.76,5.81-6.61.77.23-7.95-9.28-12.09-15.02-6.74-5.08,4.73-2.38,16.7,5.93,13.63,6.62-2.45,1.94-12.77-2.26-8.67-.5.48-.15,1.49.59,1.43,1.59-.35,2.5.65,2.75,2.98-5.66,6.19-10.59-2.91-5.38-7.74,5.66-5.25,15.82,1.31,10.23,10.8-4.81,8.17-22,11.25-13.35,9.66-5.17,1.18-2.68,2.31-2.23,2.22,10.83-2.16,19.75,1.58,18.37,1.88-.14.03-.09.21.03.23,2.51.3,3.75,3.35,1.62,5-1.75,1.35-3.78.49-3.95-.24-.42-1.78,2.37,0,1.8-1.48-.69-1.8-3.16-.74-3.41.83-.35,2.26,2.45,3.25,4.22,2.86,2.7-.6,4.37-3.46,2.79-5.8,8.02,5.15,7.52,10.43,12.2,14.37,6.16,5.19,21.3-.19,25.59,4.25,1.81,1.87-.04,4.69-2.1,4.53-1.9-.15-1.23-2.4.56-1.82.14.05.27-.13.19-.25-.73-1.19-2.47-.44-2.87.67-1.36,3.75,7.97,3.14,6.14-2.6,3.49,1.93,6.12,4.84,7.85,8.71,4.64,10.38,12.34-.15,19.8,9.3-.64.36-1.42.59-2.14.69-.08.01-.8-.32-.75.3.15,1.99,2.79,3.23,4.38,1.65.82,3.3,4.77,3.64,4.13,1.15,4.27,2.58,6.49,0,3.95-1.58,2.24-.01,2.95-3.93-4.4-2.87Zm-21.44-15.52c.79-.31,1.31-.12,1.56.55.12.09,2.96,3.76,5.45.27.99,2.82-3.15,6.73-9.35,4.19.07-.1.09-.23.1-.37,4.27.5,6.17-2.71,4.9-2.07-2.03,1.03-3.64.96-5.13.42-.02-1.44.91-3.68,2.47-2.98Zm-7.3-9.38c.25.34.89-1.02,1.52.03.49.83-.81,1.53-1.73,1.84-.3.1-.28.64.08.6.63-.07,1.16.08,1.61.46-1.1.6-2.26.5-3.39,0,.91-.77,1.59-1.81,1.91-2.93Zm-5.1-4.1c2.87-2.99,7.58,5.6.62,7.62,4.37-4-3.08-5.05-.62-7.62Zm-3.26,1.49c-.31-.99,1.21-.09,1.44-.27-.05.68.11,1.42.62,1.88-1.18-.57-1.97-1.31-2.06-1.61Zm-.77,3.09c1.33-2.04,2.63-.27,3.63.5.26.2.77.03.63-.37-.18-.5-1.07-1.73-.33-.8,1.85,2.3-2.51,1.35-3.93.67Zm-16.8-15.78c1.06.92.17,1.14-.89,1.96-2.69,2.07-5.84,2.99-9.96,2.39,3.29-2.16,9.16-5.82,10.85-4.34Zm-5.82-6.06c2.74-1.46-2.48,6.5-6.34,9.73,1.16-3.21,3.88-9.8,6.34-9.73Zm10.96-8.88c-2.29,4.92-5.33,1.97-8.73-2.51,10.61-.18,4,.67,6.18,1.02,1.24.2,1.3-.61,2.54,1.49Zm-2.65-4.6c1.34.24,2.61-1.47,2.98.06.23.98-.43,1.43-1.23,1.74-.98-.59-2.15-.83-3.36-.9,1.14-.56,1.47-.93,1.61-.9Zm-.83-1.87c2.93.06-1.77,2.39-4.23,2.74.13-.11,1.42-3.82,4.23-2.74Zm-4.27-3.43c.19,1.31.15,3.9-.74,5.04.16-2.96-.89-2.9.74-5.04Zm-3.11-.57c1.6,2.77,1.49,7.11,1,6.53.22-2.5-4.6-6.8-1-6.53Zm-12.66,19.84c4.12-.17,4.66,6.21,4.69,10.35-2.21-3.33-3.95-6.26-4.69-10.35Zm66,47.66c1.22.2,2.37-.27,3.15-1.09.42,1.96-1.83,3.29-3.15,1.09Zm4.08-4.18c2.15.06,3.37,2.88-.31,2.22.34-.67.47-1.44.31-2.22Zm1.23,7.27c-2.05-.72-1.06-3.33-1.12-4,.18.02.36.02.55.02-.65.66,1.38,2.17,1.78,2.99-.17,1.28-.57,1.61-1.21.99Zm4.62-.61c-.93.11-6.31-3.37-1.57-1.85,1.49.48.72.18,2.05.91.16.83,0,1.14-.48.93Zm1.19-2.95c-.68.26-.1.03-2.36-.45,1.23,0,3.42.05,2.36.45Z"/>
                  <path class="cls-3" d="m349.62,218.79c-4.9,6.24-11.93,1.97-10.73-1.73.93-2.86,4.28.37,1.19,1.29-.55.16-.38.87.13.94,1.37.17,2.56-1.15,2.34-2.52-.46-2.81-4.85-2.53-4.6,1.02.21,3.09,1.55-.14-7.21-4.16-.47-.77-1.17-2.01-.48-2.72.8-.83,1.89.66,2.1-.29.55-2.46-5.51-.82-2.28,2.72-3.46-1.46-7.65-2.19-11.06-.54-.26-.91-.86-1.8-1.62-2.48,4.19,0,8.53-2.54,6.72-2.96-3.02-.69-6-.55-8.88.38,5.5-6.36-.59-6.52-1.61-.96-3.24-7.07-16.26-11.16-3.47,1.61-1.2-.43-1.93-.8-3.53-1.12.13-.16.08-.52-.59-.11-5.1-.78-2.95,2.46-11.73-2.9-.77-.47-2.16-1.27-2.44-2.17-2.27-7.14,13.52-6.65,6.49-2.52-.63-1.06-2.57-.69-2.46.67.39,4.42,6.67,4.39,7.46.13.98-5.27-5.24-7.34-9.24-5.54-4.42,1.98-7.09,7.43.15,11.47-7.54-1.15-13.09,8.1-8.71,12.07,2.42,2.2,6.41,1.24,7.62-1.78,1.14-2.85-1.91-7.04-4.51-4.01-.62.72.17,1.93,1.06,1.38,2.17,1.66,2.19,3.1-1.17,4.07-5.82.02-3.56-11.65,7.12-11.01,5.21,2.49,4.96.76,3.83,2.43-.97,1.43,6.16,1.49,7.86,1.36-3.17,2.6-3.81,7.45-2.06,5.81,10.58-9.9,5.71-7,6.34-1.06.22,2.09,1.96,2.5,2.24,1.89,2.47-5.46.15-7.85.09-6.18-.23,6-1.83,7.5-.67-.8,1.42.33,2.48-.33,1.92-.34-2.96-.08,1.2-1.33,2.8,3.22-4.28,2.83-4.94,9.04.08,12.41,1.35,2.45-.07,7.17-2.47,7.03-.85.21-1.07-.11-.68-.95-.18-.71.07-1.11.75-1.18.82-.33.74-1.53-.21-1.58-4.88-.26-2.69,8.12,1.78,5.03,1.64-1.13,3.09-5.06,2.34-7.49,2.78,1.29,6.4,1.7,9.09.27,6.42-3.4,2.28-11.89-3.99-9.12-2.13.94-3.29,3.43-.8,4.66.63.31,1.43-.34,1.02-1.02,1.41-2.45,2.57-2.52,3.49-.22,1.93,1.37,1.71,2.73-.68,4.07-5.5,3.36-15.69-4.34-9.76-9.8,5.3-4.88,14.29-.34,19.51,4.45-1.2-.97-1.6-.53-1.29-.3,3.51,2.61.71,6.66-1.71,5.78-.64-.23-1.54-1.28.44-1.88.38-.11.46-.55.22-.83-1.08-1.27-2.68.47-2.75,1.65-.1,1.69,1.71,2.55,3.17,2.33,3.22-.49,4.19-4.77,2-6.67,9.15,8.38,13.33-2.86,12.03-1.2Zm-48.68-9.45c1.02-1.09,2.47.17,4.75-1.29,10.21,1.37-.91,1.94-4.75,1.29Zm5.02,5.05c.86-2.07,3.24-3.78,4.22-4-1.41,1.33-2.82,2.66-4.22,4Zm6.66-6.3c-.76.72-.62.62-.91.69-2.59-1.82-4.84-5.13-5.91-7.64,2.62.76,4.88,2.35,6.35,4.71,1.92,3.08,1.03,1.71.47,2.24Zm1.4-.36c-.1-.27.77-3.75,1.64-3.64,1.14.15-.93,2.76-1.64,3.64Zm.74,1.1c2.52-.92,5.13-1.18,7.76-.76-2.53,1.21-5.03,1.28-7.76.76Z"/>
                  <path class="cls-3" d="m289.02,190.95c-1.61-1.66-4.42-.84-5.17,1.21-.27.75.78,1.04,1.19.5,2.33-3.11,6.08,2.35.62,2.42-5.08.06-9.46-7.22-7.8-9.41.07-.09.11-.64-.77.13-.03-.13-.15-.15-.24.21-19.69,17.55.35,31.35,7.45,22.7,3.89-4.73-.37-12.63-6.64-10.53-5.89,1.98-3.55,9.12.53,6.77.57-.33.35-1.32-.35-1.28-1.26-2.93-.35-4.1,2.76-3.53.98.97,1.96,1.93,2.95,2.9,2.79,5.39-9.88,11.31-13.46-.71-1.7-5.7,3.08-10.87,6.59-15.18-.21,5.1,6.2,10.93,11.15,9.05,2.07-.79,2.75-3.63,1.19-5.25Z"/>
                </g>
              </g>
              <g>
                <g>
                  <path class="cls-2" d="m228.08,180.25l-132.08,67.66-4.07,12.89,58.21-29.26-1.44,8.24c14.89-5.82,19.63.31,24.81,4.11-6.98,9.99-14.44,22.08-31.14,31.98l-1.44,8.24-66.58,32.39-4.25,13.47,160.97-78.28-2.97-71.43Z"/>
                  <polygon class="cls-2" points="91.93 260.8 88.46 253.86 146.66 224.59 145.22 232.83 148.69 239.78 150.14 231.54 136.76 233.04 91.93 260.8"/>
                  <polygon class="cls-2" points="70.09 329.96 66.61 323.01 227.58 244.74 224.61 173.31 228.08 180.25 231.06 251.68 70.09 329.96"/>
                </g>
                <path class="cls-29" d="m224.61,173.31l-132.08,67.66-4.07,12.89,58.21-29.26-1.44,8.24c14.89-5.82,19.63.31,24.81,4.11-6.98,9.99-14.44,22.08-31.14,31.98l-1.44,8.24-66.58,32.39-4.25,13.47,160.97-78.28-2.97-71.43Z"/>
                <g>
                  <path class="cls-3" d="m100.35,241.78c-1.9-.63,4.16,0,2.87-2.55-.23-.46-1.32-.66-.79-1.19.87-.87,2.44.67,1.83,2.41-.33.95-1.16.88.59.61,3.5-.54,2.77-.33,6.17-2.21-1.8-6.39-1.37,1.67-2.94-.94-1.8-2.99,2.95-4.06,4.69-2.23,1.08-.76,5.07-9.14,10.01-6.84-.36-1.21.21-1.1.21-.86.02,3.38,7.66.42,11.17-2.49,2.31-1.92,3.52-4.39,5.29-6.71.26-.35.84-.16.73.31-1.54,6.54-11.63,11.81-15.92,10.96,2.12,2.92-1.07,7.01-3.95,5.77-1.67-.72-1.84-3.25.15-3.51.36-.05.59.44.41.72-.72,1.22.04,1.34,2.3.36,1.05-2.94-1.54-6.99-9.03,1.68,2.75-.63,4.56,1.63,3.34,2.82-1.32,1.28-3,.06-1.99-.28,2.14-.72,1.21-2.13-2.3-1.3.18.42.25.92.14,1.52-1.26,7.08-15.65,2.08-19.1,10.01-.77,1.78-1.43-4.28,6.14-6.07Z"/>
                  <path class="cls-3" d="m72.2,313.3c7.09-1.6,5.41-2.95,8.55-4.35,1.06-.47,2.34-.6,3.35-.17.82-.94,2.36-.34,3.56-.3.81.03.28.06.06-.58-.12-.35,1.73.99,2.46-.4.58-1.1-1.34-1.83-1.42-1.88-1.04-.66.9-2.08,2.3-.1.56.8.49,1.99-.22,2.7,4.87-1.04,8.51-5.78,3.58-5.56.6-.03.65,1.43-.37,1.27-3.76-.59,1.74-7.04,3.89-1.82,9.44-15.58,19.33-3.06,25.01-12.6.41-.68,1.63-.23,1.33.56-3.05,7.98-11.27,4.85-14.55,4.82-1.03,1.17-2.75,1.69-3.06,3.4-.2,1.1.7,2.65,1.97,1.92.79-.46.68-1.76-.3-2.05-.54-.16,1.59-.48,1.53,1.48-.11,3.67-7.96.79-2.65-4.46-1.85.46-3.36,1.38-4.69,2.52-.71,1.39.17,2.28.69,3.21.57,1.01-1.95.68-1.73-2.24-.33.33-3.43,3.56-3.33,4.25.57,3.9-4.85,6.52-8.83,6.67-1.27.05-3.56-.87-4.88-.58.46.28.85.69,1.09,1.29,1.52,3.69-4.5,3.66-3.58.8.14-.45.9-.53.99,0-.73-4.07-5.35,3.89-10.75,2.38-.07-.02-.08-.13,0-.15Z"/>
                  <path class="cls-3" d="m125.89,286.57c-2.53,1.58-.32,4.16,3.95,1.58-.65,2.5,3.3,2.16,4.13-1.15,1.6,1.58,4.24.34,4.38-1.65.05-.63-.67-.29-.75-.3-.72-.1-1.49-.32-2.14-.69,7.46-9.45,15.16,1.07,19.8-9.3,1.73-3.86,4.36-6.78,7.85-8.71-1.83,5.74,7.51,6.35,6.14,2.6-.4-1.11-2.14-1.87-2.87-.67-.08.12.05.3.19.25,1.79-.58,2.46,1.67.56,1.82-2.06.16-3.9-2.66-2.09-4.53,4.29-4.44,19.44.94,25.59-4.25,4.68-3.94,4.18-9.22,12.2-14.37-1.58,2.35.09,5.2,2.79,5.8,1.77.39,4.57-.6,4.22-2.86-.25-1.58-2.71-2.63-3.41-.83-.57,1.49,2.22-.29,1.8,1.48-.17.73-2.2,1.59-3.95.24-2.13-1.65-.89-4.7,1.62-5,.12-.01.17-.2.03-.23-1.38-.3,7.54-4.04,18.37-1.88.45.09,2.94-1.04-2.23-2.22,8.65,1.59-8.54-1.49-13.35-9.66-5.59-9.49,4.57-16.05,10.23-10.8,5.21,4.83.29,13.94-5.38,7.74.25-2.34,1.17-3.33,2.75-2.98.74.05,1.09-.95.59-1.43-4.21-4.1-8.88,6.23-2.26,8.67,8.31,3.07,11.01-8.9,5.93-13.63-5.74-5.35-15.25-1.21-15.02,6.74.14,5.04,1.48.23-6.61-.77-5.22-.65-8.81,2.54-8.56-.57,1.5-3.62,4.63-9.5,1.4-9.29-1.44.09-2.4,2.32-2.89,3.68-1.94-4.25-2.79-1.29-2.36,2.47-1.68-1.36-3.69-1.91-5.81-.18-.51.41.18.96.67,1.39-1.63-1.21-2.68-.32-2.92.92-.37,1.9,1.44,2.3,1.12,2.68-3.99,4.62,4.13,10.72,10.43-.9.34.58.86,1.02,1.45,1.1-.88.53-1.61,1.23-2.1,2.13-4.32,8.13,11.46,4.95,6.28.42-1.26-1.1-3.3,1.16-1.59,1.65-1.33,2.41-2.31,1.61-2.93-2.41,3.29-2.92,10.11-3.26,15.1,1.14,2.16,5.84,9,10.35,15.03,11.73-6.99-1.3-14.82.97-20.43,4.98,1.65-2.34,5.2-10.72,3.04-10.21-4.57,1.07-5.88,5.03-6.24,9.12-5.25-13.83-14.73-12.89-4.49-.61-7.93-4.72-11.95-3.06-11.21-1.92,6.13,9.38,15.75,6.2,15.84,6.21-5.83,5.76-5.98,11.6-12.23,13.02-10.41,2.37-13.86-5.45-9.82-9.82,3.89-4.22,8.81-1.54,8.06.43-.66.53-1.33,1.06-1.99,1.58-1.3.24-1.75-.42-1.36-1.97.54-.3.4-1.12-.17-1.29-3.07-.91-4.24,5.13,1.2,5.22,4.08.06,5.89-4.82,2.37-7.19-2.72-1.83-6.11-.72-8.37,1.46,3.77-6.19-3.44-11.1-7.22-7.78-2.05,1.81-1.7,5.61.84,6.82,2.5,1.19,5.99-1.24,5.23-4.04-.25-.93-1.64-.71-1.65.22-.03,2.16-2.89,3.49-3.87,1.13-2.24-5.36,10.37-5.82,5.2,5.04-2.3,4.83-.3,8.93,2.93,10.21-3.29-.2-6.7.06-9.89.92-.14-.9-2.7-.64-3.26-2.58,2.28.41,5.52-.4,5.22-1.14-.4-1-1.18-1.58-2.03-1.75.42-.42.82-.85,1.21-1.3.53-.62-1.56-2.1-2.32-.75-1-4.81-8.15-2.25-6.94,2.96-1.95-1.53-2.76,1.13-.96,2.24-3.82,1.06,1.32,3.42,3.5,1.39,1.26.83,1.11.39,4.06,1.39-3.83,1.31-7.25,3.59-9.58,7.19-.19,0-.09-2.89-2.74-4.57-2.21-1.39-3.64,1.08-3.91,1.36-4.1,4.28-3.61-2.24-5.1-.23-4.14,5.58,5.31,9.63,10.13,6.72-4.51,10.53-12.16-.34-19.3,10.08-2.22-1.67.18-3.61-1.17-3.62-3.34-.01-4.37,1.75-3.58,3.23-7.35-1.06-6.64,2.86-4.4,2.87Zm28.31-15.41c-1.49.54-3.09.61-5.13-.42-1.27-.64.63,2.57,4.9,2.07,0,.14.03.27.1.37-6.2,2.54-10.34-1.36-9.35-4.19,2.49,3.5,5.34-.18,5.45-.27.25-.67.78-.85,1.56-.55,1.56-.69,2.49,1.54,2.47,2.98Zm6.74-9.44c-1.13.5-2.29.6-3.39,0,.45-.37.98-.53,1.61-.46.36.04.39-.5.08-.6-.91-.31-2.22-1.02-1.73-1.84.63-1.05,1.27.31,1.52-.03.33,1.12,1,2.16,1.91,2.93Zm2.56.59c-6.96-2.02-2.24-10.6.62-7.62,2.46,2.56-4.99,3.61-.62,7.62Zm1.82-4.51c.51-.46.68-1.2.62-1.88.23.18,1.75-.72,1.44.27-.09.29-.88,1.04-2.06,1.61Zm-1.1.82c.75-.93-.15.3-.33.8-.14.4.37.57.63.37,1-.78,2.3-2.54,3.63-.5-1.42.68-5.78,1.64-3.93-.67Zm31.58-10.77c-4.12.6-7.27-.32-9.96-2.39-1.06-.81-1.95-1.04-.89-1.96,1.7-1.47,7.56,2.18,10.85,4.34Zm1.31-.68c-3.86-3.23-9.08-11.19-6.34-9.73,2.46-.07,5.19,6.53,6.34,9.73Zm-14.77-20.1c2.18-.35-4.43-1.2,6.18-1.02-3.4,4.48-6.43,7.43-8.73,2.51,1.24-2.11,1.3-1.29,2.54-1.49Zm1.72-2.21c-1.21.07-2.38.31-3.36.9-.8-.31-1.46-.76-1.23-1.74.36-1.53,1.64.18,2.98-.06.14-.03.47.34,1.61.9Zm3.46-.03c-2.46-.35-7.17-2.68-4.23-2.74,2.81-1.08,4.11,2.63,4.23,2.74Zm.77-1.12c-.89-1.15-.93-3.73-.74-5.04,1.62,2.14.58,2.09.74,5.04Zm1.37.91c-.49.59-.6-3.76,1-6.53,3.6-.27-1.22,4.03-1,6.53Zm8.97,23.66c.03-4.14.58-10.52,4.69-10.35-.74,4.09-2.48,7.02-4.69,10.35Zm-64.46,36.22c.78.82,1.92,1.3,3.15,1.09-1.32,2.2-3.57.86-3.15-1.09Zm-.61-.87c-3.69.66-2.46-2.16-.31-2.22-.15.78-.02,1.55.31,2.22Zm-2.75,4.06c.4-.81,2.43-2.33,1.78-2.99.19,0,.37,0,.55-.02-.06.67.93,3.29-1.12,4-.63.62-1.03.29-1.21-.99Zm-3.9-.55c1.34-.73.57-.43,2.05-.91,4.74-1.52-.64,1.96-1.57,1.85-.48.21-.64-.1-.48-.93Zm1.66-2.46c-2.27.48-1.68.71-2.36.45-1.06-.4,1.14-.44,2.36-.45Z"/>
                  <path class="cls-3" d="m152.41,220c-2.19,1.9-1.22,6.18,2,6.67,1.47.22,3.27-.64,3.17-2.33-.07-1.19-1.67-2.92-2.75-1.65-.24.28-.16.72.22.83,1.98.6,1.08,1.65.44,1.88-2.42.88-5.22-3.17-1.71-5.78.31-.23-.09-.67-1.29.3,5.22-4.79,14.21-9.33,19.51-4.45,5.93,5.46-4.26,13.15-9.76,9.8-2.39-1.34-2.61-2.69-.68-4.07.92-2.3,2.08-2.22,3.49.22-.41.67.38,1.33,1.02,1.02,2.5-1.23,1.33-3.72-.8-4.66-6.27-2.77-10.41,5.72-3.99,9.12,2.69,1.43,6.31,1.02,9.09-.27-.75,2.44.71,6.36,2.34,7.49,4.47,3.09,6.67-5.29,1.78-5.03-.95.05-1.03,1.25-.21,1.58.68.07.93.47.75,1.18.4.84.17,1.16-.68.95-2.4.14-3.81-4.58-2.47-7.03,5.02-3.38,4.36-9.58.08-12.41,1.6-4.55,5.75-3.31,2.8-3.22-.56.02.51.68,1.92.34,1.16,8.3-.45,6.8-.67.8-.06-1.67-2.38.71.09,6.18.28.61,2.02.21,2.24-1.89.63-5.94-4.24-8.84,6.34,1.06,1.75,1.64,1.11-3.22-2.06-5.81,1.7.13,8.83.07,7.86-1.36-1.14-1.68-1.39.06,3.83-2.43,10.68-.64,12.94,11.03,7.12,11.01-3.36-.98-3.35-2.41-1.17-4.07.9.55,1.68-.66,1.06-1.38-2.6-3.03-5.65,1.16-4.51,4.01,1.21,3.02,5.19,3.97,7.62,1.78,4.38-3.98-1.17-13.22-8.71-12.07,7.25-4.04,4.57-9.49.15-11.47-4-1.79-10.21.28-9.24,5.54.79,4.27,7.07,4.29,7.46-.13.12-1.35-1.83-1.73-2.46-.67-7.03-4.13,8.75-4.62,6.49,2.52-.29.9-1.67,1.7-2.44,2.17-8.78,5.36-6.62,2.11-11.73,2.9-.67-.42-.72-.06-.59.11-1.6.32-2.33.7-3.53,1.12,12.79-12.77-.23-8.68-3.47-1.61-1.02-5.56-7.11-5.41-1.61.96-2.88-.93-5.85-1.07-8.88-.38-1.8.41,2.53,2.95,6.72,2.96-.76.68-1.36,1.57-1.62,2.48-3.41-1.65-7.6-.91-11.06.54,3.23-3.54-2.82-5.18-2.28-2.72.21.95,1.3-.54,2.1.29.69.71-.02,1.95-.48,2.72-8.76,4.02-7.42,7.24-7.21,4.16.24-3.55-4.14-3.83-4.6-1.02-.23,1.37.97,2.69,2.34,2.52.51-.06.68-.77.13-.94-3.09-.92.26-4.15,1.19-1.29,1.2,3.7-5.83,7.97-10.73,1.73-1.3-1.66,2.88,9.59,12.03,1.2Zm31.89-11.95c2.28,1.46,3.74.21,4.75,1.29-3.84.65-14.96.07-4.75-1.29Zm-4.48,2.34c.98.22,3.36,1.93,4.22,4-1.4-1.34-2.81-2.67-4.22-4Zm-1.97-4.55c1.47-2.36,3.73-3.95,6.35-4.71-1.07,2.51-3.32,5.82-5.91,7.64-.3-.07-.15.03-.91-.69-.56-.53-1.45.84.47-2.24Zm-3.51-1.75c.87-.11,1.74,3.37,1.64,3.64-.71-.88-2.78-3.48-1.64-3.64Zm-6.86,3.98c2.63-.41,5.24-.16,7.76.76-2.73.52-5.24.44-7.76-.76Z"/>
                  <path class="cls-3" d="m200.98,190.95c1.61-1.66,4.42-.84,5.17,1.21.27.75-.78,1.04-1.19.5-2.33-3.11-6.08,2.35-.62,2.42,5.08.06,9.46-7.22,7.8-9.41-.07-.09-.11-.64.77.13.03-.13.15-.15.24.21,19.69,17.55-.35,31.35-7.45,22.7-3.89-4.73.37-12.63,6.64-10.53,5.89,1.98,3.55,9.12-.53,6.77-.57-.33-.35-1.32.35-1.28,1.26-2.93.35-4.1-2.76-3.53-.98.97-1.96,1.93-2.95,2.9-2.79,5.39,9.88,11.31,13.46-.71,1.7-5.7-3.08-10.87-6.59-15.18.21,5.1-6.2,10.93-11.15,9.05-2.07-.79-2.75-3.63-1.19-5.25Z"/>
                </g>
              </g>
            </g>
            <g>
              <path class="cls-2" d="m106.05,119.97l-21.91,56.81s106.36,71.33,144.76,74.85c38.4,3.52,53.73-1.16,77.4-15.12,23.67-13.96,90.44-53.16,99.55-64.21l-26.79-52.33-125.7,46.27c-44.33-17.18-14.72-7.46-147.31-46.27Z"/>
              <path class="cls-29" d="m110.85,121.37l-20.24,50.93s102.36,59.94,140.83,69.27c51.24,12.43,151.75-61.23,166.32-75.33l-22.52-44.87-121.88,44.87-142.51-44.87Z"/>
            </g>
            <path class="cls-7" d="m108.14,120.44c-3.82,8.61-5.35,18.04-9.49,26.57-3.52,7.25-8.37,14.17-9.45,22.33,0,.04.06.05.08.01,4.1-13.49,14.88-25.12,19.84-48.5.12-.56-.72-1-.98-.41Z"/>
            <path class="cls-7" d="m393.63,173.16c-26.61,24.27-88.56,57.94-106.06,65.68-55.4,24.49-90.01-6.24-191.28-58.41-8.83-4.55,54.99,30.72,63.7,35.5,91.23,50.06,103.07,41.33,177.69-1.38,65.91-37.73,58.1-43.34,55.95-41.39Z"/>
            <path class="cls-7" d="m394.72,154.3c-5.5-12.39-12.97-25.23-12.31-23.72,9.63,22.2,13.38,26.12,12.31,23.72Z"/>
            <path class="cls-7" d="m182.59,144.83c-10.24-3.61-21.12-5.56-31.47-8.93-10.19-3.31-19.85-8.23-30.13-11.21-6.46-1.88-9.65-3.56-11.69.94-.55,1.21-10.13,30.31-12.61,40.53-1.47,6.07,10.18-27.92,13.45-37.85,2.88-8.75,14.88,1.2,43.51,10.13,35.36,11.03,29.35,6.55,28.94,6.4Z"/>
            <path class="cls-7" d="m391.47,165.87c-19.46-43.76-17.92-41.4-18.91-41.02-54.14,20.52-51.86,18.66-63.19,23.72-4.46,1.99,26.5-8.21,58.37-20.16,6.39-2.4,2.77-6.13,22.25,38.34.44,1.01,1.93.14,1.48-.87Z"/>
            <path class="cls-7" d="m190.54,221.07c-6.52-4.16-97.42-50.09-90.04-45,8.32,5.74,107.75,56.3,90.04,45Z"/>
            <path class="cls-7" d="m380.58,176.59c-12.03,7.93-21.81,17.02-46.44,30.13-27.65,14.72-37.96,15.99-50.7,22.28-8.72,4.3,28.3-2.38,75.38-35.02,18.27-12.67,22.78-18.06,21.76-17.39Z"/>
            <path class="cls-5" d="m142.49,216.82c-11.69,2.49-14.25,6.88-47.02,23.64-4.87,2.49-4.97,12.59-4.45,10.94,3.54-11.14,2.53-8.6,10.04-11.96,10.1-4.52,17.84-9.8,27.46-14.92,4.69-2.5,9.66-4.31,14.39-6.69.59-.29.16-1.14-.43-1.01Z"/>
            <path class="cls-5" d="m169.57,234.71c-4.15-7.51-14.99-8.77-22.03-4.92.53-2.36.64-4.62.36-7.11-.24-2.07-85.74,41.33-19.34,9.41,17.68-8.5,17-8.49,17.66-8.31,2.84.77-1.55,9.07.78,7.53,7.68-5.06,16.07-2.31,21.94,3.89.32.34.85-.09.63-.49Z"/>
            <path class="cls-5" d="m135.96,280.22c-11.51,4.88-13.96,8.65-42.05,20-15.21,6.15-15.33,5.21-18.72,7.21-4.44,2.62-3.96,8.06-6.12,12.2-.04.07.06.16.12.09,3.94-4.08,1.3-9.38,9.52-12.49,12.55-4.74,45.8-17.42,57.93-25.85.72-.5.11-1.49-.67-1.15Z"/>
            <path class="cls-5" d="m169.63,243.41c-15.66,20.44-31.31,23.95-29.2,34.12.04.2.33.14.34-.05.38-8.22,9.97-12.81,15.72-17.44,16.8-13.52,14.72-18.7,13.14-16.64Z"/>
            <path class="cls-5" d="m208.41,250.94c-.09.04-131.96,65.3-131.88,65.26,20.9-8.98,122.77-57.42,132.65-63.45.92-.56.31-2.26-.77-1.81Z"/>
            <path class="cls-5" d="m420.7,319.19c-.71-1.81-1.41-3.63-2.12-5.45-.27-.7-1.42-.4-1.14.31,3.49,9,15.91,8.68-136.85-62.42-5.43-2.53,141.13,70.16,140.11,67.55Z"/>
            <path class="cls-5" d="m404.15,302.85c-49.24-24.87-49.86-18.53-53.19-29.01-3.64-11.46-17.9-10.39-31.2-34.72-.99-1.81,3.24,10.81,15.38,20.73,5.5,4.49,12.3,7.57,14.52,13.72,2.28,6.3-.13,5.72,10.63,10.58,30.24,13.67,34.27,15.76,43.55,19.48.44.18.75-.55.32-.77Z"/>
            <path class="cls-5" d="m399.25,250.69c-4.97-2.98-56.26-28.5-56.37-28.54-1.9-.94-1.19,8.15-1.36,8.29-.09.07-2.15-1.36-2.83-1.67-6.94-3.22-12.59,1.5-10.82.66,8.96-4.28,14.85,4.15,14.63,2.32-1.58-12.93,3.4-6.92,8.51-4.28.13.07,41.02,21.25,47.86,24.13.53.22.85-.63.38-.91Z"/>
            <path class="cls-5" d="m386.35,235.76c-32.14-15.69-26.7-12.7,2.35,2.25,2.77,1.43,7.59,2.93,8.07,6.55.07.55.84.58.88,0,.33-5-7.88-7.12-11.3-8.79Z"/>
          </g>
          <g>
            <path class="cls-21" d="m119.79,107.28l-20.83,77.7,119.4,58.12c23.36,10,35.59,6.91,51.87,0l125.69-61.27-29.05-70.12-122.21,46.11-124.87-50.53Z"/>
            <path class="cls-19" d="m259.63,238.71c-9.43,10.45-57.98,1.36-12.6-18.91l17.76,15.86-5.16,3.05Z"/>
            <path class="cls-23" d="m244.35,226.65s10.32,3.61,15.28,12.06l124.13-60.32-17.6-14.38s-101.37,37.35-121.81,62.64Z"/>
            <polygon class="cls-26" points="366.16 164.01 343.7 105.44 356.85 115.61 383.76 178.39 366.16 164.01"/>
            <path class="cls-28" d="m244.35,226.65l-3.84-71.38s24.48-16.07,52.61-26.24c28.12-10.17,50.58-23.59,50.58-23.59l22.46,58.57s-40.3,19.32-62.83,28.88c-22.52,9.56-58.98,33.76-58.98,33.76Z"/>
            <path class="cls-14" d="m247.66,159.01c7.53-4.61,26.74-15.79,47.8-23.4,19.22-6.95,35.69-15.29,44.63-20.13l17.26,45.01c-11.97,5.68-39.67,18.74-56.73,25.98-15.67,6.65-37.39,19.86-49.99,27.83l-2.98-55.29Z"/>
            <path class="cls-23" d="m244.35,226.65s-9.82,6.26-13.48,13.07c0,0-48.63-23.54-63.81-30.87-15.18-7.32-62.22-26.68-62.22-26.68,0,0,9.11-12.98,15.48-12.98s112.7,34.07,124.03,57.45Z"/>
            <path class="cls-26" d="m104.83,182.18l19.77-71.62,9.38-7.55,4.25,2.44-17.91,63.76s-13.97,9.96-15.48,12.98Z"/>
            <path class="cls-25" d="m244.35,226.65l-3.84-71.38s-10.32-22.07-38.24-30.91c-27.92-8.85-64.04-21.35-64.04-21.35l-17.91,66.2s114.52,34.98,124.03,57.45Z"/>
            <path class="cls-14" d="m236.46,209.3c-9.93-6.69-26.64-15.25-55.19-26.31-21.34-8.27-42.28-15.17-52.49-18.44l14.21-52.53c11.93,4.09,36.85,12.55,57.19,19,21.36,6.77,31.1,21.9,33.48,26.15l2.81,52.13Z"/>
            <g>
              <path class="cls-27" d="m331.18,129.25c-15.79,10.01-19.16,8.75-38.05,16.92-30.35,13.13-39.27,21.96-38.19,21.38,10.13-5.54,20.25-13.17,41.39-21.28,17.88-6.87,29.67-8.06,36.12-15.36.75-.85-.21-2.32-1.27-1.65Z"/>
              <path class="cls-27" d="m337.17,140.09c-30.71,9.41-58.07,16.61-82.92,34.66-.51.37-.23,1.3.46,1.08,10.45-3.24,14.42-11.38,37.91-19.54,9.42-3.27,54.01-19.1,44.55-16.2Z"/>
              <path class="cls-27" d="m341.09,147.81c-23.2,4.19-84.5,37.35-84.42,37.33,20.81-6.99,26.31-15.56,63.44-28.8,7-2.5,14.81-4.12,21.44-7.44.64-.32.16-1.19-.46-1.08Z"/>
              <path class="cls-27" d="m341.26,157.54c-3.15.9-76.65,31.59-82.42,36.78-.65.58.29,1.48.95.95,6.73-5.56,90.56-40.31,81.47-37.72Z"/>
              <path class="cls-27" d="m171.09,130.62c-10.04-2.56-24.16-7.26-22.61-6.46,25.91,13.41,30.3.53,78.57,34.88,4.87,3.47-7.23-16-55.96-28.41Z"/>
              <path class="cls-27" d="m227.67,166.95c-22.34-11.72-32.54-23.84-81.67-35.85-8.53-2.09,30.33,10.04,43.69,15.96,20.82,9.23,26.43,16.39,37.49,21.04.66.28,1.11-.82.49-1.15Z"/>
              <path class="cls-27" d="m167.12,147.71c-12.66-3.42-26.69-5.11-23.39-4.33,24.38,5.76,22.2,3.28,43.16,14.36,34.97,18.48,33.25,19.55,40.96,21.99,9.21,2.91-48.33-28.66-60.74-32.01Z"/>
              <path class="cls-27" d="m229.87,189.6c-34.68-15-64-35.9-84.76-34.19-1.07.09-1.5,1.81-.27,2.03,33.93,6.05,23.69,4.93,64.29,24.26,17,8.09,21.24,8.12,20.75,7.91Z"/>
            </g>
            <path class="cls-17" d="m127.34,109.61c-3.15,10.87-6.02,21.8-8.96,32.73-2.92,10.88-6.44,21.77-8.71,32.8-.1.5.61.71.77.21,3.53-10.69,5.91-21.89,8.79-32.78,2.9-10.94,5.86-21.85,8.55-32.84.07-.29-.36-.41-.44-.12Z"/>
            <path class="cls-17" d="m131.1,107.7c-3.75,10.31-6.27,21.24-9.23,31.8-2.87,10.22-6.57,20.61-8.51,31.05-.09.46.54.63.7.19,3.72-9.94,5.92-20.75,8.73-30.99,2.91-10.58,6.39-21.24,8.5-32,.02-.12-.14-.17-.18-.05Z"/>
            <path class="cls-17" d="m135.69,105.05c-4.04,9.57-6.28,20.22-9.22,30.18-2.97,10.09-5.91,20.19-8.83,30.29-.16.57.72.81.88.24,2.96-10.09,5.91-20.19,8.81-30.3,2.87-9.98,6.69-20.16,8.42-30.4,0-.05-.05-.07-.07-.02Z"/>
            <path class="cls-17" d="m379.73,174.61c-3.52-9.59-8.05-18.92-12.07-28.32-4.2-9.81-7.79-20.16-12.72-29.63-.05-.1-.21-.03-.17.07,3.11,10.19,7.93,20.09,12.03,29.91,3.93,9.42,7.6,19.15,12.23,28.25.19.38.85.12.7-.29Z"/>
            <path class="cls-17" d="m373.36,168.83c-3.42-10.05-8.47-19.74-12.49-29.58-3.85-9.43-6.94-19.26-11.12-28.55-.04-.08-.16-.02-.14.06,2.56,10.29,6.91,20.38,10.8,30.23,3.69,9.34,7.26,19.43,12.36,28.09.18.31.71.11.59-.25Z"/>
            <path class="cls-17" d="m365.99,168.64c-21.11,6.73-40.91,16.76-60.2,27.56-9.65,5.41-19.16,11.05-28.68,16.69-4.49,2.66-9.05,5.24-13.34,8.21-3.72,2.57-8.13,5.56-10.28,9.62-.17.32.2.81.55.55,4.05-3.02,7.42-6.75,11.65-9.63,4.14-2.81,8.49-5.33,12.78-7.91,9.26-5.57,18.57-11.08,27.99-16.38,19.21-10.81,39.02-20.5,59.63-28.34.23-.09.14-.44-.1-.37Z"/>
            <path class="cls-17" d="m372.98,173.43c-20.74,4.59-40.15,13.15-58.73,23.28-9.32,5.08-18.43,10.55-27.35,16.31-9.28,6-18.85,11.9-27.6,18.65-.96.74-.13,2.35.98,1.68,9.09-5.43,17.66-11.81,26.56-17.57,8.91-5.77,17.9-11.44,27.12-16.7,18.67-10.65,38.42-19.43,59.12-25.32.21-.06.12-.38-.09-.33Z"/>
            <path class="cls-17" d="m376.34,178.42c-17.17,3.56-33.81,10.53-49.48,18.28-7.87,3.89-15.56,8.13-23.05,12.71-7.46,4.56-15.24,9.25-21.8,15.07-.54.48.16,1.36.76.99,7.29-4.41,14.11-9.6,21.38-14.06,7.48-4.59,15.17-8.84,23.02-12.75,15.95-7.93,32.58-13.8,49.2-20.09.09-.03.06-.17-.04-.15Z"/>
            <path class="cls-17" d="m236.78,224.43c-7.99-7.06-17.92-12.41-27.34-17.31-9.63-5-19.6-9.31-29.76-13.1-10.33-3.86-20.87-6.92-31.39-10.16-5.79-1.78-11.13-4.14-16.45-7.04-3.91-2.13-8.06-4.39-12.57-4.8-.11,0-.13.16-.03.19,9.91,2.95,18.18,9.37,28.06,12.57,10.25,3.31,20.59,6.17,30.71,9.89,10.3,3.79,20.42,8.13,30.18,13.16,9.85,5.08,18.74,11.39,28.17,17.13.33.2.71-.28.42-.54Z"/>
            <path class="cls-17" d="m234.87,230.38c-9.15-6.38-19-11.91-28.67-17.45-9.69-5.54-19.55-10.81-29.69-15.47-9.48-4.36-19.22-8.21-29.22-11.24-10.94-3.32-22.11-5.78-32.49-10.72-.22-.1-.41.21-.19.33,9.06,5.03,19.07,7.58,28.95,10.46,11.09,3.23,21.85,7.37,32.33,12.23,9.9,4.59,19.53,9.75,28.99,15.19,9.91,5.69,19.45,12.08,29.51,17.49.55.29.98-.48.48-.82Z"/>
            <path class="cls-17" d="m231.89,235.25c-9.93-5.11-20.25-9.37-30.06-14.76-9.58-5.27-18.68-11.35-28.67-15.84-9.76-4.39-19.83-8.13-29.77-12.11-10.85-4.34-21.66-8.91-32.79-12.48-.12-.04-.21.15-.09.21,20.54,10,42.52,16.74,63.22,26.37,9.93,4.62,18.96,10.85,28.54,16.12,9.33,5.13,19.11,10.06,29.19,13.54.61.21,1.02-.75.44-1.05Z"/>
            <path class="cls-7" d="m120.51,111.3c-2.86,8.41-4.23,17.54-6.46,26.15-2.24,8.69-4.72,17.32-7.24,25.94-.02.07.09.1.11.03,3.09-8.72,5.84-17.55,8.4-26.44,2.37-8.27,5.33-16.96,6.32-25.53.08-.67-.93-.73-1.13-.15Z"/>
            <path class="cls-7" d="m387.51,179.36c-36.13,17.77-72.25,35.54-108.38,53.31-8.71,4.28-17.7,9.9-27.31,11.8-10.47,2.07-20.9-1.82-30.34-6.01-18.42-8.18-36.63-16.88-54.93-25.3-20.92-9.63-41.82-19.34-62.88-28.65-.33-.15-.62.33-.29.49,38.18,18.46,76.76,36.21,115.32,53.87,7.85,3.6,16.03,7.07,24.74,7.69,8.78.62,16.62-2.68,24.34-6.44,19.03-9.29,38.01-18.67,57.02-28.01,21.2-10.41,42.4-20.83,63.6-31.24,1.01-.5.13-2.01-.89-1.52Z"/>
            <path class="cls-7" d="m381.3,156.29l-5.48-14.46c-1.83-4.82-3.69-9.64-5.65-14.41-1.63-3.97-3.08-8.57-5.76-11.95-.09-.12-.3-.02-.29.12.26,4.73,2.5,9.61,4.09,14.05,1.73,4.85,3.53,9.68,5.36,14.49,3.5,9.21,6.21,19.75,11.54,28.08.42.65,1.3.21,1.19-.5-.85-5.33-3.1-10.4-5-15.43Z"/>
            <path class="cls-7" d="m143.04,111.34c-2.04,5.47-3.27,11.25-4.76,16.89-1.48,5.63-3.19,11.3-4.24,17.04-.01.07.08.1.11.03,2.01-5.47,3.41-11.22,4.99-16.83,1.58-5.62,3.46-11.22,4.48-16.97.07-.39-.45-.53-.59-.16Z"/>
            <path class="cls-7" d="m224.47,143.28c-1.91-4.13-5.93-6.16-10.03-7.7-6.08-2.28-12.4-4.02-18.59-5.99-13.73-4.37-27.43-8.81-41.3-12.74-.12-.03-.17.14-.05.18,12.08,4.3,24.29,8.19,36.5,12.09,6.1,1.95,12.2,3.9,18.3,5.85,5.63,1.81,11.02,3.6,14.61,8.63.24.34.74.05.56-.33Z"/>
            <path class="cls-7" d="m336.66,117c-5.81,2.45-11.19,6.08-16.99,8.67-6.82,3.05-13.82,5.57-20.86,8.06-6.45,2.28-12.91,4.52-19.25,7.1-5.97,2.42-12.55,4.93-17.69,8.88-.05.04-.02.13.04.1,6.68-2.76,12.99-6.32,19.77-8.94,6.38-2.47,12.86-4.66,19.32-6.9,6.43-2.24,12.87-4.51,19.14-7.17,5.63-2.38,12.31-5.04,16.85-9.22.24-.22-.01-.71-.33-.57Z"/>
            <path class="cls-7" d="m354.34,161.57c-11.12,3.98-21.91,9.48-32.6,14.49-11.16,5.22-22.54,10.38-33.18,16.61-.09.05-.01.17.08.13,11.09-4.85,21.87-10.51,32.86-15.61,10.97-5.09,22.38-9.42,33.2-14.79.46-.23.14-1.01-.35-.84Z"/>
            <path class="cls-7" d="m353.52,152.23c-1.94-4.69-3.55-9.1-4.7-14.06-1.04-4.46-2.06-8.96-4.64-12.82-.03-.04-.09,0-.07.04,2.2,5.06,3.2,10.23,4.29,15.61.82,4.04,1.72,8.38,4.42,11.63.26.31.86-.02.7-.41Z"/>
            <path class="cls-7" d="m250.12,237.79c-3.56.9-9.51,3.44-12.38-.29-.1-.13-.31-.02-.23.13,2.08,4.42,9.68,3.21,13.07,1.24.58-.34.19-1.25-.46-1.08Z"/>
            <path class="cls-7" d="m244.69,233.62c-.68-.14-1.39.03-2.09.01-.74-.02-1.48,0-2.23-.09-.22-.03-.32.33-.12.43,1.31.61,3.16,1.2,4.55.56.38-.18.28-.83-.12-.91Z"/>
          </g>
          <g>
            <g>
              <path class="cls-13" d="m269.85,256.33c.9,3.44,4.02,8.09,8.78,11.12-1.67-.34-.73.08-1.05,1.39-.23-.09-.46-.19-.68-.28.28.44-.12,1.05-.62,1.18-1.04.25-1.91-.84-2.95-.82-1.86.04-.74,2.5-2.38-.22-1.47,4.03-9.22-8.14-10.79-17.11-1.27-7.23,2.78-14.06,6.76-15.78,6.4-2.77.42,10.97,2.93,20.52Z"/>
              <path class="cls-20" d="m269.2,237.27c-9.97,22.25,3.99,33.83,1.52,31.23-8.11-8.53-6.64-21.57-2.25-31.47.2-.45.93-.21.73.24Z"/>
              <path class="cls-20" d="m268.84,240.19c-1.39,7.32-4.06,16.8,2.32,26.72.76,1.18-8.75-9.34-2.55-26.76.04-.12.25-.09.23.04Z"/>
              <path class="cls-20" d="m267.16,237.35c-3.65,11.07-5.49,20.26.95,30,1.05,1.58-10.08-10.35-1.3-30.12.09-.21.42-.11.34.11Z"/>
              <path class="cls-20" d="m265.33,237.97c-3.36,7.3-4.6,13.02-1.6,21.65.88,2.54-6.22-10.99,1.26-21.81.12-.17.43-.03.33.16Z"/>
              <path class="cls-20" d="m269.28,242.09c.19,4.32-4.05,14.67,5.71,25.93.07.08-.05.17-.12.1-9.04-9.18-6.39-19.41-5.9-26.05.02-.21.3-.18.31.02Z"/>
              <path class="cls-20" d="m270.79,260.17c1.84,2.66,3.68,5.23,5.99,7.52.07.07-.04.19-.11.13-5.52-4.84-6.69-8.82-5.88-7.65Z"/>
              <path class="cls-7" d="m266.2,237.51c-3.47,8.18-3.62,11.52-2.86,19.74.09,1.02-3.13-9.68,2.61-19.87.08-.14.31-.02.25.12Z"/>
              <path class="cls-7" d="m269.02,237.68c-2.34,8.81-5.42,19.86,1.74,30,.82,1.16-9.53-8.24-1.93-30.06.04-.12.23-.06.19.06Z"/>
              <path class="cls-7" d="m268.39,244.23c-1.17,7.68-.54,20.03,5.43,23.99.03.02-3.7-.74-5.75-10.93-1.79-8.92.55-14.6.32-13.06Z"/>
              <path class="cls-7" d="m272.05,262.49c2.24,3.16,3.31,5.49,2.8,4.76-3.34-4.74-3.03-5.09-2.8-4.76Z"/>
              <path class="cls-7" d="m267.64,238.12c-1.89,6.37-6.23,15.46-.93,25.28.75,1.39-7.23-8.13.6-25.39.09-.2.39-.11.33.11Z"/>
              <path class="cls-7" d="m262.45,242.14c-2.22,6.06-1.56,9.92-1.65,9.39-1.17-7.2,2.26-11.05,1.65-9.39Z"/>
            </g>
            <g>
              <path class="cls-13" d="m275.07,254.85c1.93,2.99,6.35,6.44,11.81,7.83-1.7.2-.66.31-.56,1.65l-.74-.05c.4.33.22,1.04-.22,1.31-.91.56-2.08-.2-3.05.14-1.76.62.08,2.61-2.33.53-.14,4.29-11.3-4.86-15.59-12.89-3.46-6.47-1.74-14.22,1.5-17.1,5.21-4.62,3.82,10.29,9.18,18.59Z"/>
              <path class="cls-20" d="m268.51,236.94c-2.54,24.25,14.34,30.9,11.18,29.2-10.37-5.58-13.04-18.42-11.95-29.2.05-.49.82-.49.77,0Z"/>
              <path class="cls-20" d="m269.07,239.83c.97,7.38,1.38,17.23,10.54,24.66,1.09.89-11.23-6.14-10.77-24.63,0-.13.21-.17.23-.03Z"/>
              <path class="cls-20" d="m266.6,237.65c-.02,11.66,1.11,20.97,10.26,28.21,1.49,1.18-12.81-6.69-10.62-28.21.02-.23.36-.23.36,0Z"/>
              <path class="cls-20" d="m265.05,238.81c-.91,7.98-.31,13.81,5.23,21.07,1.63,2.14-9.33-8.5-5.6-21.12.06-.2.39-.17.37.05Z"/>
              <path class="cls-20" d="m270.08,241.49c1.52,4.04.72,15.2,13.51,22.86.09.05,0,.18-.08.13-11.45-5.9-12.12-16.45-13.73-22.91-.05-.2.23-.26.3-.08Z"/>
              <path class="cls-20" d="m277.15,258.2c2.58,1.96,5.13,3.82,8.03,5.28.09.04.02.19-.07.16-6.76-2.88-9.1-6.3-7.97-5.43Z"/>
              <path class="cls-7" d="m265.73,238.11c-.75,8.85.15,12.07,3.44,19.65.41.94-5.99-8.22-3.72-19.69.03-.15.29-.12.28.04Z"/>
              <path class="cls-7" d="m268.47,237.39c.52,9.1,1.05,20.56,11.01,27.96,1.14.85-11.63-4.86-11.21-27.96,0-.13.2-.13.2,0Z"/>
              <path class="cls-7" d="m269.91,243.8c1.29,7.66,5.73,19.2,12.64,21.1.03,0-3.75.45-8.87-8.59-4.49-7.92-4.03-14.04-3.77-12.5Z"/>
              <path class="cls-7" d="m279.08,260.02c3.12,2.31,4.86,4.18,4.14,3.65-4.65-3.46-4.46-3.89-4.14-3.65Z"/>
              <path class="cls-7" d="m267.3,238.23c.19,6.64-1.1,16.64,7,24.31,1.14,1.08-9.41-5.47-7.34-24.31.02-.22.34-.22.34,0Z"/>
              <path class="cls-7" d="m263.62,243.67c-.22,6.45,1.61,9.91,1.36,9.43-3.36-6.48-1.3-11.2-1.36-9.43Z"/>
            </g>
            <path class="cls-1" d="m270.32,234.55c.76-3.06,3.37-7.12,3.36-7.09.21-.83-.3-1.67-1.13-1.88-.03,0,.13-.51.12-.48.43-1.74-2.45-1.95-2.42-1.94-1-.25-1.45.44-1.7,1.43-3.17-.79-.98,3.95-2.23,8.97l-.84.8c-.67.64-.37,1.77.53,1.99l3.26.81c.9.22,1.69-.63,1.4-1.51l-.37-1.1Z"/>
            <g>
              <path class="cls-21" d="m274.13,215.12c-2.01-.97-2.85-3.39-1.88-5.4.97-2.01,3.39-2.85,5.4-1.88,2.01.97,2.85,3.39,1.88,5.4-.97,2.01-3.39,2.85-5.4,1.88Z"/>
              <path class="cls-6" d="m277.28,214.18c.68-.07,1.4-.69,1.7-1.28.4-.81.39-1.87.09-2.71-.67-1.84-2.5-2.14-4.18-1.66-.02,0-.01.03,0,.03,1.21-.06,2.4,1.14,2.67,2.29.23,1.01-.31,1.93-.61,2.84-.08.23.05.52.34.49Z"/>
              <path class="cls-5" d="m274.59,214.59c.24,0,.37-.31.24-.49-.41-.58-.9-1.11-1.16-1.79-.27-.71-.28-1.49-.18-2.23,0-.05-.04-.08-.09-.06-1.69,1.12-.94,4.51,1.19,4.57Z"/>
            </g>
            <g>
              <path class="cls-21" d="m277.86,207.92c-2.19-.45-3.6-2.58-3.15-4.77.45-2.19,2.58-3.6,4.77-3.15,2.19.45,3.6,2.58,3.15,4.77-.45,2.19-2.58,3.6-4.77,3.15Z"/>
              <path class="cls-6" d="m280.68,206.24c.64-.24,1.19-1.01,1.33-1.66.19-.89-.08-1.9-.58-2.64-1.1-1.62-2.95-1.46-4.46-.58-.02,0,0,.03.01.03,1.16-.35,2.61.52,3.15,1.56.48.92.18,1.95.1,2.9-.02.24.18.49.45.39Z"/>
              <path class="cls-5" d="m278.17,207.29c.23-.05.28-.39.11-.53-.54-.46-1.15-.85-1.56-1.45-.43-.62-.64-1.37-.73-2.12,0-.05-.06-.07-.1-.03-1.36,1.5.2,4.6,2.28,4.14Z"/>
            </g>
            <g>
              <circle class="cls-21" cx="280.19" cy="196.04" r="4.04" transform="translate(38.12 437.58) rotate(-79.92)"/>
              <path class="cls-6" d="m282.58,197.93c.59-.35.99-1.2,1.01-1.87.03-.91-.41-1.86-1.04-2.5-1.37-1.4-3.16-.92-4.49.22-.01.01,0,.03.02.03,1.08-.55,2.66.05,3.38.98.63.82.52,1.89.62,2.84.03.24.26.45.51.31Z"/>
              <path class="cls-5" d="m280.29,199.41c.22-.09.2-.43.01-.54-.62-.36-1.28-.64-1.79-1.15-.54-.54-.87-1.24-1.09-1.96-.01-.04-.07-.06-.1-.02-1.07,1.72,1.01,4.5,2.97,3.67Z"/>
            </g>
            <g>
              <path class="cls-21" d="m279.58,192.05c-2.21.34-4.27-1.17-4.61-3.38-.34-2.21,1.17-4.27,3.38-4.61,2.21-.34,4.27,1.17,4.61,3.38.34,2.21-1.17,4.27-3.38,4.61Z"/>
              <path class="cls-6" d="m281.64,189.49c.52-.44.76-1.36.67-2.02-.13-.9-.74-1.76-1.47-2.28-1.6-1.13-3.28-.35-4.38,1.01-.01.01,0,.03.02.02.97-.73,2.63-.42,3.49.37.77.7.84,1.77,1.11,2.68.07.24.34.4.56.21Z"/>
              <path class="cls-5" d="m279.65,191.35c.2-.13.12-.46-.08-.54-.67-.24-1.37-.4-1.97-.82-.62-.43-1.08-1.07-1.42-1.74-.02-.04-.08-.04-.1,0-.75,1.88,1.79,4.25,3.57,3.09Z"/>
            </g>
            <g>
              <path class="cls-21" d="m278.94,183.85c-1.94,1.11-4.4.44-5.52-1.49-1.11-1.94-.44-4.4,1.49-5.52,1.94-1.11,4.4-.44,5.52,1.49,1.11,1.94.44,4.4-1.49,5.52Z"/>
              <path class="cls-6" d="m279.95,180.72c.33-.6.22-1.54-.1-2.12-.44-.79-1.32-1.38-2.19-1.6-1.9-.48-3.18.86-3.73,2.52,0,.02.02.03.03.01.64-1.03,2.3-1.34,3.39-.91.97.38,1.42,1.34,2,2.11.15.2.46.25.6,0Z"/>
              <path class="cls-5" d="m278.76,183.17c.14-.19-.05-.48-.27-.47-.71.02-1.42.12-2.13-.05-.74-.18-1.39-.61-1.95-1.11-.03-.03-.09-.01-.09.04-.03,2.03,3.19,3.32,4.44,1.6Z"/>
            </g>
            <g>
              <path class="cls-21" d="m274.92,176.84c-1.94,1.11-4.4.44-5.52-1.49-1.11-1.94-.44-4.4,1.49-5.52,1.94-1.11,4.4-.44,5.52,1.49,1.11,1.94.44,4.4-1.49,5.52Z"/>
              <path class="cls-6" d="m275.93,173.71c.33-.6.22-1.54-.1-2.12-.44-.79-1.32-1.38-2.19-1.6-1.9-.48-3.18.86-3.73,2.52,0,.02.02.03.03.01.64-1.03,2.3-1.34,3.39-.91.97.38,1.42,1.34,2,2.11.15.2.46.25.6,0Z"/>
              <path class="cls-5" d="m274.74,176.16c.14-.19-.05-.48-.27-.47-.71.02-1.42.12-2.13-.05-.74-.18-1.39-.61-1.95-1.11-.03-.03-.09-.01-.09.04-.03,2.03,3.19,3.32,4.44,1.6Z"/>
            </g>
            <g>
              <path class="cls-21" d="m271.17,169.62c-1.57,1.59-4.13,1.6-5.71.03-1.59-1.57-1.6-4.13-.03-5.71,1.57-1.59,4.13-1.6,5.71-.03,1.59,1.57,1.6,4.13.03,5.71Z"/>
              <path class="cls-6" d="m271.31,166.34c.16-.67-.2-1.55-.66-2.02-.64-.65-1.64-.98-2.53-.96-1.96.04-2.84,1.67-2.92,3.42,0,.02.03.02.03,0,.34-1.16,1.86-1.9,3.03-1.78,1.03.11,1.73.92,2.49,1.5.19.15.51.12.57-.16Z"/>
              <path class="cls-5" d="m270.82,169.02c.08-.22-.18-.45-.39-.38-.68.2-1.34.49-2.07.51-.76.02-1.5-.22-2.17-.55-.04-.02-.09.01-.08.06.51,1.96,3.96,2.35,4.71.36Z"/>
            </g>
            <g>
              <path class="cls-21" d="m265.43,163.94c-1.57,1.59-4.13,1.6-5.71.03s-1.6-4.13-.03-5.71c1.57-1.59,4.13-1.6,5.71-.03,1.59,1.57,1.6,4.13.03,5.71Z"/>
              <path class="cls-6" d="m265.57,160.65c.16-.67-.2-1.55-.66-2.02-.64-.65-1.64-.98-2.53-.96-1.96.04-2.84,1.67-2.92,3.42,0,.02.03.02.03,0,.34-1.16,1.86-1.9,3.03-1.78,1.03.11,1.73.92,2.49,1.5.19.15.51.12.57-.16Z"/>
              <path class="cls-5" d="m265.08,163.33c.08-.22-.18-.45-.39-.38-.68.2-1.34.49-2.07.51-.76.02-1.5-.22-2.17-.55-.04-.02-.09.01-.08.06.51,1.96,3.96,2.35,4.71.36Z"/>
            </g>
            <g>
              <path class="cls-21" d="m259.84,158.04c-1.03,1.98-3.46,2.76-5.45,1.73-1.98-1.03-2.76-3.46-1.73-5.45,1.03-1.98,3.46-2.76,5.45-1.73,1.98,1.03,2.76,3.46,1.73,5.45Z"/>
              <path class="cls-6" d="m258.99,154.86c-.05-.68-.65-1.42-1.24-1.73-.8-.43-1.85-.44-2.7-.16-1.86.62-2.21,2.44-1.77,4.13,0,.02.03.01.03,0-.02-1.21,1.21-2.37,2.36-2.61,1.02-.21,1.92.36,2.82.69.23.08.52-.04.5-.32Z"/>
              <path class="cls-5" d="m259.33,157.56c.01-.24-.3-.37-.48-.25-.59.4-1.13.87-1.82,1.11-.72.25-1.5.24-2.24.12-.05,0-.08.04-.06.08,1.08,1.72,4.48,1.06,4.6-1.06Z"/>
            </g>
            <g>
              <path class="cls-21" d="m252.67,154.32c-1.03,1.98-3.46,2.76-5.45,1.73-1.98-1.03-2.76-3.46-1.73-5.45,1.03-1.98,3.46-2.76,5.45-1.73,1.98,1.03,2.76,3.46,1.73,5.45Z"/>
              <path class="cls-6" d="m251.82,151.15c-.05-.68-.65-1.42-1.24-1.73-.8-.43-1.85-.44-2.7-.16-1.86.62-2.21,2.44-1.77,4.13,0,.02.03.01.03,0-.02-1.21,1.21-2.37,2.36-2.61,1.02-.21,1.92.36,2.82.69.23.08.52-.04.5-.32Z"/>
              <path class="cls-5" d="m252.15,153.85c.01-.24-.3-.37-.48-.25-.59.4-1.13.87-1.82,1.11-.72.25-1.5.24-2.24.12-.05,0-.08.04-.06.08,1.08,1.72,4.48,1.06,4.6-1.06Z"/>
            </g>
            <g>
              <path class="cls-21" d="m241.65,147.69c2.23-.17,4.16,1.5,4.33,3.73.17,2.23-1.5,4.16-3.73,4.33-2.23.17-4.16-1.5-4.33-3.73-.17-2.23,1.5-4.16,3.73-4.33Z"/>
              <path class="cls-6" d="m239.39,150.08c-.56.4-.87,1.3-.82,1.96.06.91.6,1.81,1.28,2.38,1.5,1.25,3.24.6,4.45-.66.01-.01,0-.03-.02-.02-1.02.66-2.65.22-3.46-.64-.71-.76-.7-1.83-.89-2.76-.05-.24-.3-.43-.54-.26Z"/>
              <path class="cls-5" d="m241.52,148.38c-.21.11-.16.45.04.54.65.29,1.34.51,1.9.97.59.48.99,1.15,1.28,1.84.02.04.08.05.1,0,.9-1.82-1.45-4.37-3.32-3.36Z"/>
            </g>
            <g>
              <path class="cls-21" d="m242.93,155.52c1.86-1.23,4.37-.71,5.6,1.16,1.23,1.86.71,4.37-1.16,5.6-1.86,1.23-4.37.71-5.6-1.16-1.23-1.86-.71-4.37,1.16-5.6Z"/>
              <path class="cls-6" d="m242.11,158.71c-.29.62-.13,1.55.23,2.11.49.76,1.4,1.29,2.28,1.46,1.92.37,3.12-1.05,3.57-2.74,0-.02-.02-.03-.03-.01-.57,1.07-2.21,1.48-3.33,1.12-.99-.32-1.5-1.26-2.12-1.98-.16-.19-.47-.22-.59.04Z"/>
              <path class="cls-5" d="m243.15,156.19c-.13.2.08.47.3.46.71-.06,1.41-.2,2.13-.08.75.13,1.42.52,2.01.99.04.03.09,0,.09-.04-.1-2.03-3.39-3.12-4.53-1.33Z"/>
            </g>
            <g>
              <path class="cls-21" d="m247.51,162.17c1.77-1.36,4.31-1.02,5.66.75,1.36,1.77,1.02,4.31-.75,5.66-1.77,1.36-4.31,1.02-5.66-.75-1.36-1.77-1.02-4.31.75-5.66Z"/>
              <path class="cls-6" d="m246.93,165.4c-.24.64-.02,1.56.38,2.09.55.73,1.49,1.19,2.38,1.29,1.94.23,3.04-1.27,3.36-2.99,0-.02-.02-.02-.03,0-.49,1.11-2.1,1.63-3.24,1.36-1.01-.25-1.59-1.14-2.26-1.82-.17-.17-.49-.19-.59.08Z"/>
              <path class="cls-5" d="m247.78,162.82c-.11.21.11.47.33.43.7-.11,1.4-.31,2.12-.23.75.08,1.46.42,2.08.84.04.03.09,0,.09-.05-.24-2.01-3.61-2.87-4.62-.99Z"/>
            </g>
            <g>
              <path class="cls-21" d="m252.41,168.59c1.8-1.32,4.33-.92,5.65.88,1.32,1.8.92,4.33-.88,5.65-1.8,1.32-4.33.92-5.65-.88-1.32-1.8-.92-4.33.88-5.65Z"/>
              <path class="cls-6" d="m251.76,171.82c-.26.63-.05,1.56.34,2.1.53.74,1.46,1.22,2.35,1.35,1.94.27,3.07-1.2,3.43-2.91,0-.02-.02-.02-.03,0-.52,1.1-2.14,1.58-3.27,1.28-1-.27-1.56-1.18-2.22-1.87-.17-.18-.48-.2-.59.07Z"/>
              <path class="cls-5" d="m252.66,169.25c-.12.21.1.47.32.44.7-.09,1.4-.27,2.12-.18.75.1,1.45.45,2.06.89.04.03.09,0,.09-.05-.2-2.02-3.54-2.95-4.59-1.1Z"/>
            </g>
            <g>
              <path class="cls-21" d="m257.33,175.02c1.92-1.14,4.4-.5,5.53,1.42,1.14,1.92.5,4.4-1.42,5.53-1.92,1.14-4.4.5-5.53-1.42-1.14-1.92-.5-4.4,1.42-5.53Z"/>
              <path class="cls-6" d="m256.37,178.16c-.32.61-.2,1.55.13,2.12.45.79,1.34,1.36,2.21,1.57,1.9.46,3.17-.9,3.69-2.57,0-.02-.02-.03-.03-.01-.62,1.04-2.28,1.37-3.38.96-.97-.36-1.44-1.33-2.02-2.08-.15-.19-.46-.25-.6,0Z"/>
              <path class="cls-5" d="m257.52,175.7c-.14.2.06.48.28.47.71-.02,1.42-.14,2.13.03.74.17,1.4.59,1.96,1.08.04.03.09,0,.09-.04,0-2.03-3.24-3.28-4.46-1.54Z"/>
            </g>
            <g>
              <path class="cls-21" d="m261.44,181.98c1.92-1.14,4.4-.5,5.53,1.42,1.14,1.92.5,4.4-1.42,5.53-1.92,1.14-4.4.5-5.53-1.42-1.14-1.92-.5-4.4,1.42-5.53Z"/>
              <path class="cls-6" d="m260.48,185.12c-.32.61-.2,1.55.13,2.12.45.79,1.34,1.36,2.21,1.57,1.9.46,3.17-.9,3.69-2.57,0-.02-.02-.03-.03-.01-.62,1.04-2.28,1.37-3.38.96-.97-.36-1.44-1.33-2.02-2.08-.15-.19-.46-.25-.6,0Z"/>
              <path class="cls-5" d="m261.63,182.65c-.14.2.06.48.28.47.71-.02,1.42-.14,2.13.03.74.17,1.4.59,1.96,1.08.04.03.09,0,.09-.04,0-2.03-3.24-3.28-4.46-1.54Z"/>
            </g>
            <g>
              <path class="cls-21" d="m264.92,189.23c2.1-.77,4.42.31,5.18,2.41.77,2.1-.31,4.42-2.41,5.18-2.1.77-4.42-.31-5.18-2.41-.77-2.1.31-4.42,2.41-5.18Z"/>
              <path class="cls-6" d="m263.4,192.15c-.42.54-.48,1.48-.26,2.11.3.86,1.06,1.58,1.88,1.95,1.79.8,3.28-.3,4.1-1.85,0-.02-.01-.03-.03-.02-.8.91-2.49.93-3.5.32-.89-.54-1.17-1.57-1.61-2.42-.11-.22-.41-.33-.59-.1Z"/>
              <path class="cls-5" d="m264.98,189.93c-.17.17-.03.48.19.51.7.11,1.42.13,2.09.41.7.3,1.26.84,1.73,1.42.03.04.09.03.1-.02.37-1.99-2.58-3.82-4.11-2.33Z"/>
            </g>
            <g>
              <path class="cls-21" d="m267.69,196.82c2.1-.77,4.42.31,5.18,2.41.77,2.1-.31,4.42-2.41,5.18-2.1.77-4.42-.31-5.18-2.41-.77-2.1.31-4.42,2.41-5.18Z"/>
              <path class="cls-6" d="m266.17,199.74c-.42.54-.48,1.48-.26,2.11.3.86,1.06,1.58,1.88,1.95,1.79.8,3.28-.3,4.1-1.85,0-.02-.01-.03-.03-.02-.8.91-2.49.93-3.5.32-.89-.54-1.17-1.57-1.61-2.42-.11-.22-.41-.33-.59-.1Z"/>
              <path class="cls-5" d="m267.75,197.52c-.17.17-.03.48.19.51.7.11,1.42.13,2.09.41.7.3,1.26.84,1.73,1.42.03.04.09.03.1-.02.37-1.99-2.58-3.82-4.11-2.33Z"/>
            </g>
            <g>
              <path class="cls-21" d="m269.92,204.56c2.2-.37,4.28,1.12,4.65,3.32.37,2.2-1.12,4.28-3.32,4.65-2.2.37-4.28-1.12-4.65-3.32-.37-2.2,1.12-4.28,3.32-4.65Z"/>
              <path class="cls-6" d="m267.89,207.14c-.52.45-.74,1.37-.64,2.03.14.9.76,1.75,1.49,2.26,1.61,1.11,3.28.3,4.37-1.06.01-.01,0-.03-.02-.02-.96.75-2.62.46-3.5-.32-.78-.69-.87-1.75-1.14-2.67-.07-.23-.34-.4-.56-.21Z"/>
              <path class="cls-5" d="m269.85,205.26c-.2.13-.12.47.09.54.67.23,1.38.38,1.98.79.63.42,1.09,1.05,1.44,1.72.02.04.08.04.1,0,.73-1.89-1.84-4.22-3.61-3.04Z"/>
            </g>
            <g>
              <path class="cls-21" d="m271.25,212.53c2.23-.06,4.09,1.7,4.15,3.93s-1.7,4.09-3.93,4.15c-2.23.06-4.09-1.7-4.15-3.93-.06-2.23,1.7-4.09,3.93-4.15Z"/>
              <path class="cls-6" d="m268.88,214.81c-.57.37-.93,1.25-.92,1.92.01.91.51,1.84,1.17,2.44,1.44,1.32,3.21.76,4.47-.45.01-.01,0-.03-.02-.02-1.05.61-2.66.09-3.42-.81-.67-.79-.61-1.86-.76-2.8-.04-.24-.28-.44-.52-.28Z"/>
              <path class="cls-5" d="m271.09,213.21c-.22.1-.18.44.01.54.63.32,1.31.57,1.85,1.06.56.51.93,1.19,1.19,1.9.02.04.08.05.1.01.98-1.77-1.24-4.44-3.15-3.51Z"/>
            </g>
            <g>
              <path class="cls-19" d="m271.22,219.98c3.08.35,5.29,3.13,4.94,6.21-.35,3.08-3.13,5.29-6.21,4.94-3.08-.35-5.29-3.13-4.94-6.21.35-3.08,3.13-5.29,6.21-4.94Z"/>
              <path class="cls-6" d="m267.52,222.66c-.86.4-1.52,1.54-1.63,2.46-.16,1.25.34,2.62,1.13,3.58,1.72,2.1,4.26,1.66,6.24.25.02-.01,0-.05-.02-.04-1.56.63-3.67-.39-4.55-1.77-.77-1.22-.48-2.67-.5-4,0-.34-.31-.66-.67-.49Z"/>
              <path class="cls-5" d="m270.86,220.89c-.32.1-.34.58-.09.75.81.57,1.69,1.04,2.34,1.81.68.81,1.05,1.82,1.27,2.84.01.06.1.09.14.03,1.69-2.25-.84-6.34-3.66-5.44Z"/>
            </g>
            <g class="cls-16">
              <path class="cls-4" d="m268.85,235.55c-.62-.27-1.28-.4-1.9-.63.9-.77,1.65-2.21.87-3.2-.03-.04-.09-.02-.1.03-.05.57.04,1.08-.2,1.63-.27.62-.74,1.07-1.36,1.31-.21.08-.29.42-.08.56.8.53,1.69,1.05,2.68.93.32-.04.38-.5.09-.63Z"/>
            </g>
          </g>
        </g>
      </g>
    </g>
  </g>
</svg>